<svg xmlns="http://www.w3.org/2000/svg" width="16" height="16" viewBox="0 0 16 16"><defs><style>.a{fill:#3a65af;}</style></defs><path class="a" d="M14.545,0H1.455A1.459,1.459,0,0,0,0,1.455V14.545A1.459,1.459,0,0,0,1.455,16H14.545A1.459,1.459,0,0,0,16,14.545V1.455A1.459,1.459,0,0,0,14.545,0ZM2.182,13.818a.727.727,0,1,1,0-1.455.727.727,0,1,1,0,1.455Zm0-2.909a.727.727,0,1,1,0-1.455.727.727,0,1,1,0,1.455Zm2.909,2.909a.727.727,0,1,1,0-1.455.727.727,0,1,1,0,1.455Zm0-2.909a.727.727,0,1,1,0-1.455.727.727,0,1,1,0,1.455ZM5.091,8a.687.687,0,0,1-.727-.727.687.687,0,0,1,.727-.727.687.687,0,0,1,.727.727A.687.687,0,0,1,5.091,8ZM8,13.818a.727.727,0,1,1,0-1.455.727.727,0,1,1,0,1.455Zm0-2.909A.727.727,0,1,1,8,9.455a.727.727,0,1,1,0,1.455ZM8,8a.687.687,0,0,1-.727-.727A.687.687,0,0,1,8,6.545a.687.687,0,0,1,.727.727A.687.687,0,0,1,8,8Zm2.909,5.818a.727.727,0,1,1,.727-.727A.687.687,0,0,1,10.909,13.818Zm0-2.909a.727.727,0,1,1,.727-.727A.687.687,0,0,1,10.909,10.909Zm-.727-3.636a.727.727,0,0,1,1.455,0,.727.727,0,0,1-1.455,0Zm3.636,3.636a.727.727,0,1,1,.727-.727A.687.687,0,0,1,13.818,10.909Zm0-2.909a.687.687,0,0,1-.727-.727.727.727,0,1,1,1.455,0A.687.687,0,0,1,13.818,8Zm.727-3.636H1.455V1.455H14.545Z"/></svg>