<svg xmlns="http://www.w3.org/2000/svg" width="32" height="30.5" viewBox="0 0 32 30.5"><defs><style>.a{fill:none;stroke:#213963;stroke-linecap:round;stroke-linejoin:round;}.b{fill:#213963;}.c{fill:#e1644a;}.d{fill:#fff;font-size:9px;font-family:Roboto-Medium, Roboto;font-weight:500;letter-spacing:0.015em;}</style></defs><g transform="translate(0.5)"><g transform="translate(-1280.5 -60)"><path class="a" d="M1,6V20a2.006,2.006,0,0,0,2,2H21a2.006,2.006,0,0,0,2-2V6Z" transform="translate(1280.5 68)"/><path class="a" d="M24,4V2a2.006,2.006,0,0,0-2-2H2A2.006,2.006,0,0,0,0,2V4Z" transform="translate(1280.5 68)"/><rect class="b" width="9" height="1.5" rx="0.75" transform="translate(1288 77)"/></g><g transform="translate(15.5)"><circle class="c" cx="8" cy="8" r="8"/></g><text class="d" transform="translate(23.5 11)"><tspan x="-2.558" y="0">2</tspan></text></g></svg>