<svg width="32" height="31" viewBox="0 0 32 31" fill="none" xmlns="http://www.w3.org/2000/svg">
<path d="M1.5 14V28C1.50158 28.5299 1.7128 29.0377 2.08753 29.4125C2.46227 29.7872 2.97005 29.9984 3.5 30H21.5C22.0299 29.9984 22.5377 29.7872 22.9125 29.4125C23.2872 29.0377 23.4984 28.5299 23.5 28V14H1.5Z" stroke="#878787" stroke-linecap="round" stroke-linejoin="round"/>
<path d="M24.5 12V10C24.4984 9.47005 24.2872 8.96227 23.9125 8.58753C23.5377 8.2128 23.0299 8.00158 22.5 8H2.5C1.97005 8.00158 1.46227 8.2128 1.08753 8.58753C0.712805 8.96227 0.501583 9.47005 0.5 10L0.5 12H24.5Z" stroke="#878787" stroke-linecap="round" stroke-linejoin="round"/>
<path d="M16.25 17H8.75C8.33579 17 8 17.3358 8 17.75C8 18.1642 8.33579 18.5 8.75 18.5H16.25C16.6642 18.5 17 18.1642 17 17.75C17 17.3358 16.6642 17 16.25 17Z" fill="#878787"/>
<path d="M24 16C28.4183 16 32 12.4183 32 8C32 3.58172 28.4183 0 24 0C19.5817 0 16 3.58172 16 8C16 12.4183 19.5817 16 24 16Z" fill="#E1644A"/>
<path d="M26.2233 11H21.921V10.2661L24.0524 7.94141C24.36 7.59863 24.5782 7.31299 24.7071 7.08447C24.839 6.85303 24.9049 6.62158 24.9049 6.39014C24.9049 6.08545 24.8185 5.83936 24.6456 5.65186C24.4757 5.46436 24.2457 5.37061 23.9557 5.37061C23.61 5.37061 23.3419 5.47607 23.1515 5.68701C22.961 5.89795 22.8658 6.18652 22.8658 6.55273H21.798C21.798 6.16309 21.8858 5.81299 22.0616 5.50244C22.2403 5.18896 22.4938 4.9458 22.8219 4.77295C23.1529 4.6001 23.5338 4.51367 23.9645 4.51367C24.5856 4.51367 25.0748 4.67041 25.4322 4.98389C25.7926 5.29443 25.9728 5.7251 25.9728 6.27588C25.9728 6.59521 25.8819 6.93066 25.7003 7.28223C25.5216 7.63086 25.2272 8.02783 24.817 8.47314L23.2525 10.1475H26.2233V11Z" fill="white"/>
</svg>
