<svg width="25" height="25" viewBox="0 0 25 25" fill="none" xmlns="http://www.w3.org/2000/svg">
<path d="M12.5 24.5C19.1274 24.5 24.5 19.1274 24.5 12.5C24.5 5.87258 19.1274 0.5 12.5 0.5C5.87258 0.5 0.5 5.87258 0.5 12.5C0.5 19.1274 5.87258 24.5 12.5 24.5Z" stroke="#878787"/>
<path d="M6.719 13.423H13.842V14.923H6.719C6.52009 14.923 6.32932 14.844 6.18867 14.7033C6.04802 14.5627 5.969 14.3719 5.969 14.173V14.173C5.969 13.9741 6.04802 13.7833 6.18867 13.6427C6.32932 13.502 6.52009 13.423 6.719 13.423V13.423Z" fill="#878787"/>
<path d="M13.842 5.86499V14.565H12.342V5.86499C12.342 5.66608 12.421 5.47531 12.5617 5.33466C12.7023 5.19401 12.8931 5.11499 13.092 5.11499V5.11499C13.2909 5.11499 13.4817 5.19401 13.6223 5.33466C13.763 5.47531 13.842 5.66608 13.842 5.86499V5.86499Z" fill="#878787"/>
</svg>
