<svg xmlns="http://www.w3.org/2000/svg" width="25" height="25" viewBox="0 0 25 25"><defs><style>.a{fill:none;stroke:#213963;}.b{fill:#213963;}</style></defs><g transform="translate(0.5 0.5)"><g transform="translate(-1184 -66)"><circle class="a" cx="12" cy="12" r="12" transform="translate(1184 66)"/></g><path class="b" d="M.75,0H7.873a0,0,0,0,1,0,0V1.5a0,0,0,0,1,0,0H.75A.75.75,0,0,1,0,.75v0A.75.75,0,0,1,.75,0Z" transform="translate(5.469 12.923)"/><path class="b" d="M.75,0h8.7a0,0,0,0,1,0,0V1.5a0,0,0,0,1,0,0H.75A.75.75,0,0,1,0,.75v0A.75.75,0,0,1,.75,0Z" transform="translate(13.342 4.615) rotate(90)"/></g></svg>