<svg width="25" height="23" viewBox="0 0 25 23" fill="none" xmlns="http://www.w3.org/2000/svg">
<path d="M18 0.500013C16.9158 0.550352 15.8572 0.846595 14.9044 1.36633C13.9515 1.88607 13.1293 2.6157 12.5 3.50001C11.8707 2.6157 11.0485 1.88607 10.0956 1.36633C9.14279 0.846595 8.08422 0.550352 7 0.500013C6.14593 0.4983 5.29992 0.665258 4.51053 0.991307C3.72114 1.31736 3.00391 1.79608 2.39998 2.4C1.79606 3.00392 1.31734 3.72115 0.991293 4.51054C0.665244 5.29993 0.498286 6.14594 0.5 7.00001C0.5 13.4 7.9 19.5 11.3 22.1C11.4621 22.245 11.6522 22.3553 11.8586 22.4241C12.065 22.4929 12.2833 22.5188 12.5 22.5C12.9311 22.4904 13.3493 22.351 13.7 22.1V22.1C17.1 19.5 24.5 13.4 24.5 7.00001C24.5017 6.14594 24.3348 5.29993 24.0087 4.51054C23.6827 3.72115 23.2039 3.00392 22.6 2.4C21.9961 1.79608 21.2789 1.31736 20.4895 0.991307C19.7001 0.665258 18.8541 0.4983 18 0.500013V0.500013Z" stroke="#878787"/>
</svg>
